<svg xmlns="http://www.w3.org/2000/svg" width="20pt" height="20pt" viewBox="0 0 20 20"><path d="M5.625 8.125a1.25 1.25 0 10-.002 2.498 1.25 1.25 0 00.002-2.498zm4.375 0a1.25 1.25 0 10-.002 2.498A1.25 1.25 0 0010 8.125zm4.375 0a1.25 1.25 0 10-.002 2.498 1.25 1.25 0 00.002-2.498zM10 1.25c-5.523 0-10 3.637-10 8.125 0 1.86.777 3.563 2.066 4.934-.582 1.539-1.793 2.843-1.812 2.859a.937.937 0 00.683 1.582c2.403 0 4.297-1.004 5.434-1.809C7.5 17.297 8.72 17.5 10 17.5c5.523 0 10-3.637 10-8.125 0-4.488-4.477-8.125-10-8.125zm0 14.375a10.15 10.15 0 01-3.063-.473l-.886-.28-.762.538a8.4 8.4 0 01-2.246 1.133 9.798 9.798 0 00.777-1.57l.414-1.098-.804-.852c-.707-.753-1.555-2-1.555-3.648 0-3.445 3.645-6.25 8.125-6.25s8.125 2.805 8.125 6.25-3.645 6.25-8.125 6.25zm0 0" fill="#5d626a"/></svg>