<svg xmlns="http://www.w3.org/2000/svg" width="20pt" height="20" viewBox="0 0 20 15"><path d="M18.125 1.875H1.875C.84 1.875 0 2.504 0 3.281v8.438c0 .777.84 1.406 1.875 1.406h16.25c1.035 0 1.875-.629 1.875-1.406V3.28c0-.777-.84-1.406-1.875-1.406zm0 1.406v1.196c-.875.535-2.273 1.367-5.258 3.12-.656.387-1.96 1.321-2.867 1.31-.906.011-2.21-.923-2.867-1.31-2.985-1.753-4.383-2.585-5.258-3.12V3.28zM1.875 11.72V6.28a673.25 673.25 0 004.098 2.422c.855.504 2.351 1.617 4.027 1.61 1.668.007 3.145-1.09 4.027-1.61a673.25 673.25 0 004.098-2.422v5.438zm0 0" fill="#5d626a"/></svg>