<svg xmlns="http://www.w3.org/2000/svg" width="22" height="18"><path d="M21.99 5.82a6.19 6.19 0 00-1.85-4.1A5.853 5.853 0 0016 0c-2.31 0-3.95 1.78-4.82 2.74-.06.06-.11.12-.16.17a.647.647 0 01-.08-.09C10.13 1.9 8.46 0 6 0a5.853 5.853 0 00-4.14 1.72 6.19 6.19 0 00-1.85 4.1 6.862 6.862 0 001.27 4.34 29.2 29.2 0 004.76 4.75C7.75 16.32 9.99 18 11.01 18s3.27-1.68 4.96-3.09a29.112 29.112 0 004.75-4.75 6.88 6.88 0 001.27-4.34zm-2.38 3.61a26.861 26.861 0 01-4.43 4.42c-2.4 2-3.83 2.79-4.17 2.82-.34-.03-1.77-.83-4.19-2.84a26.509 26.509 0 01-4.43-4.4 5.614 5.614 0 01-1.06-3.54A4.812 4.812 0 016 1.32c1.86 0 3.21 1.54 3.94 2.37a1.518 1.518 0 001.06.76 1.729 1.729 0 001.15-.81c.79-.87 2.12-2.32 3.85-2.32a4.812 4.812 0 014.67 4.57 5.553 5.553 0 01-1.06 3.54z"/></svg>