<svg xmlns="http://www.w3.org/2000/svg" width="13pt" height="14pt" viewBox="0 0 13 14"><path d="M9.102 8.313c-.836 0-1.235.437-2.602.437-1.367 0-1.766-.438-2.602-.438C1.746 8.313 0 9.957 0 11.989v.7C0 13.413.625 14 1.395 14h10.21c.77 0 1.395-.586 1.395-1.313v-.699c0-2.031-1.746-3.675-3.898-3.675zm2.503 4.374H1.395v-.699c0-1.3 1.125-2.363 2.503-2.363.426 0 1.114.438 2.602.438 1.5 0 2.172-.438 2.602-.438 1.378 0 2.503 1.063 2.503 2.363zM6.5 7.875c2.309 0 4.18-1.766 4.18-3.938C10.68 1.767 8.809 0 6.5 0 4.191 0 2.32 1.766 2.32 3.938c0 2.171 1.871 3.937 4.18 3.937zm0-6.563c1.535 0 2.785 1.18 2.785 2.625 0 1.446-1.25 2.626-2.785 2.626-1.535 0-2.785-1.18-2.785-2.625 0-1.446 1.25-2.626 2.785-2.626zm0 0" fill="#fff" id="surface1"/></svg>